<svg width="75" height="67" viewBox="0 0 75 67" fill="none" xmlns="http://www.w3.org/2000/svg">
<circle cx="29.5" cy="37.5" r="29.5" fill="#FE401E" fill-opacity="0.5"/>
<circle cx="45.5" cy="29.5" r="29.5" fill="#FE401E" fill-opacity="0.5"/>
<circle cx="38" cy="34" r="8" fill="#F2F2F2"/>
<path fill-rule="evenodd" clip-rule="evenodd" d="M50 44.5833C47.0682 47.905 42.7788 50 38 50C29.1634 50 22 42.8366 22 34C22 25.1634 29.1634 18 38 18C46.8366 18 54 25.1634 54 34V49H50V44.5833ZM49.8261 34C49.8261 40.5314 44.5314 45.8261 38 45.8261C31.4686 45.8261 26.1739 40.5314 26.1739 34C26.1739 27.4686 31.4686 22.1739 38 22.1739C44.5314 22.1739 49.8261 27.4686 49.8261 34Z" fill="#F2F2F2"/>
</svg>
